<?xml version="1.0" standalone="no"?>
<!DOCTYPE svg PUBLIC "-//W3C//DTD SVG 20010904//EN"
 "http://www.w3.org/TR/2001/REC-SVG-20010904/DTD/svg10.dtd">
<svg version="1.0" xmlns="http://www.w3.org/2000/svg"
 width="512.000000pt" height="512.000000pt" viewBox="0 0 512.000000 512.000000"
 preserveAspectRatio="xMidYMid meet">
<metadata>
Created by potrace 1.14, written by Peter Selinger 2001-2017
</metadata>
<g transform="translate(0.000000,512.000000) scale(0.100000,-0.100000)"
fill="#000000" stroke="none">
<path d="M64 4840 c-12 -4 -31 -21 -43 -36 -20 -26 -21 -35 -21 -335 l0 -309
29 -32 29 -33 241 -3 241 -3 0 -389 0 -389 -37 -18 c-51 -24 -111 -86 -135
-140 -25 -56 -33 -137 -20 -185 l10 -37 -149 -3 c-147 -3 -149 -3 -176 -31
l-28 -27 -3 -1265 -2 -1264 29 -33 29 -33 408 -3 c441 -3 453 -2 479 49 25 47
19 87 -16 120 l-31 29 -349 0 -349 0 0 1129 0 1130 378 4 c411 4 435 7 617 69
186 63 353 166 525 323 266 243 516 346 841 346 135 0 212 -11 332 -46 169
-49 315 -132 461 -262 172 -153 267 -221 401 -288 251 -124 368 -145 828 -145
l337 0 0 -1130 0 -1130 -1626 0 -1626 0 -29 -29 c-49 -49 -35 -128 28 -160 16
-8 484 -11 1702 -11 l1681 0 32 29 33 29 0 1271 0 1271 -28 27 c-27 28 -29 28
-176 31 l-149 3 10 37 c13 48 5 129 -20 185 -24 54 -84 116 -135 140 l-37 18
0 389 0 390 235 0 235 0 32 29 33 29 0 322 0 322 -33 29 -32 29 -2483 -1
c-1365 0 -2492 -4 -2503 -9z m4856 -370 l0 -180 -170 0 -170 0 0 50 c0 81 -38
130 -100 130 -62 0 -100 -49 -100 -130 l0 -50 -700 0 c-761 0 -743 1 -768 -55
-19 -41 -14 -72 17 -107 l29 -33 711 -3 711 -2 0 -390 0 -389 -37 -18 c-51
-24 -111 -86 -136 -142 -17 -35 -22 -65 -22 -128 l0 -82 -30 6 c-145 27 -344
111 -462 194 -34 24 -101 81 -150 125 -167 154 -294 238 -463 307 -436 178
-943 118 -1325 -156 -38 -28 -113 -89 -165 -137 -119 -109 -196 -165 -297
-218 -86 -45 -228 -95 -308 -109 l-50 -9 0 80 c0 62 -5 92 -22 127 -25 56 -85
118 -136 142 l-37 18 0 389 0 390 750 0 c650 0 755 2 780 15 61 32 72 112 21
157 l-31 28 -760 0 -760 0 0 50 c0 61 -16 97 -51 116 -34 17 -60 18 -94 2 -36
-16 -55 -57 -55 -118 l0 -50 -170 0 -170 0 0 180 0 180 2360 0 2360 0 0 -180z
m-4213 -1371 c63 -60 19 -169 -67 -169 -60 0 -108 60 -95 118 6 29 36 64 65
75 25 10 73 -2 97 -24z m3840 0 c63 -60 19 -169 -67 -169 -60 0 -108 60 -95
118 6 29 36 64 65 75 25 10 73 -2 97 -24z"/>
<path d="M2569 4275 c-85 -46 -46 -180 53 -180 33 0 45 6 69 33 76 85 -21 202
-122 147z"/>
<path d="M2350 2916 c-131 -24 -212 -46 -305 -83 -239 -94 -454 -254 -513
-380 -24 -51 -27 -70 -27 -158 0 -88 3 -106 27 -155 35 -71 107 -143 177 -178
l56 -27 795 0 795 0 56 27 c70 35 142 107 177 178 24 49 27 67 27 155 0 88 -3
107 -27 159 -47 100 -194 223 -381 319 -203 104 -382 148 -622 153 -104 2
-186 -2 -235 -10z m388 -203 c22 -5 19 -11 -52 -82 -43 -43 -80 -90 -85 -107
-17 -61 32 -124 98 -124 31 0 48 14 162 126 l127 126 85 -40 c157 -74 307
-185 333 -249 32 -75 -1 -171 -71 -210 l-40 -23 -735 0 -735 0 -40 23 c-70 39
-103 135 -71 210 15 37 103 117 190 172 56 36 215 115 231 115 4 0 -9 -18 -29
-40 -28 -31 -36 -48 -36 -79 0 -69 71 -114 135 -86 16 7 91 75 165 150 l135
137 105 -6 c58 -4 116 -9 128 -13z"/>
<path d="M421 1521 l-31 -29 0 -382 0 -382 31 -29 31 -29 142 0 c160 0 208 11
269 61 20 17 49 52 65 77 24 41 27 57 27 132 0 72 -4 92 -24 128 l-25 42 25
43 c20 35 24 55 24 127 0 75 -3 91 -27 132 -16 25 -45 60 -65 77 -61 50 -109
61 -269 61 l-142 0 -31 -29z m314 -196 c14 -13 25 -33 25 -45 0 -11 -11 -32
-25 -45 -20 -21 -34 -25 -85 -25 l-60 0 0 70 0 70 60 0 c51 0 65 -4 85 -25z
m0 -340 c14 -13 25 -34 25 -45 0 -11 -11 -32 -25 -45 -20 -21 -34 -25 -85 -25
l-60 0 0 70 0 70 60 0 c51 0 65 -4 85 -25z"/>
<path d="M1412 1534 c-12 -8 -28 -27 -36 -42 -35 -69 -250 -691 -250 -726 -1
-50 47 -96 100 -96 62 0 82 32 163 263 41 114 75 207 76 207 1 0 36 -93 76
-207 81 -231 101 -263 163 -263 53 0 101 46 100 96 0 24 -48 175 -123 384
-100 280 -128 350 -152 373 -34 31 -82 36 -117 11z"/>
<path d="M2028 1521 l-33 -29 0 -382 0 -382 33 -29 c43 -39 90 -39 133 -1 26
23 31 36 36 90 l6 64 81 -80 c45 -44 91 -85 103 -91 65 -33 143 16 143 91 0
38 -7 47 -147 189 l-147 149 147 149 c140 142 147 151 147 189 0 75 -78 124
-143 91 -12 -6 -58 -47 -103 -91 l-81 -80 -6 64 c-5 54 -10 67 -36 90 -43 38
-90 38 -133 -1z"/>
<path d="M2737 1530 c-15 -12 -31 -38 -37 -58 -13 -49 -13 -675 0 -724 6 -20
22 -46 37 -58 24 -19 39 -20 214 -20 203 0 226 5 252 50 21 36 21 64 0 100
-25 42 -53 50 -183 50 l-120 0 0 70 0 70 85 0 c95 0 130 12 151 51 27 52 8
115 -41 137 -14 7 -64 12 -110 12 l-85 0 0 70 0 70 120 0 c130 0 158 8 183 50
21 36 21 64 0 100 -26 45 -49 50 -252 50 -175 0 -190 -1 -214 -20z"/>
<path d="M3389 1521 l-29 -29 0 -382 0 -382 29 -29 c40 -40 89 -40 133 0 l33
29 3 141 4 141 59 0 c50 0 64 -4 84 -25 23 -23 25 -31 25 -130 0 -117 11 -153
55 -173 45 -21 81 -15 115 20 l32 31 -4 146 c-3 133 -5 150 -27 189 l-25 42
25 43 c20 35 24 55 24 127 0 75 -3 91 -27 132 -16 25 -45 60 -65 77 -61 50
-109 61 -271 61 l-144 0 -29 -29z m316 -196 c14 -13 25 -33 25 -45 0 -11 -11
-32 -25 -45 -20 -21 -34 -25 -85 -25 l-60 0 0 70 0 70 60 0 c51 0 65 -4 85
-25z"/>
<path d="M4128 1521 c-26 -23 -33 -37 -33 -68 0 -33 17 -65 105 -199 l105
-159 5 -183 5 -184 33 -29 c59 -53 140 -29 162 49 5 20 10 105 10 189 l0 151
105 163 c85 133 105 170 105 201 0 51 -33 88 -85 95 -55 7 -81 -16 -164 -144
l-68 -105 -72 111 c-40 61 -82 117 -94 126 -35 24 -82 19 -119 -14z"/>
<path d="M1259 455 c-85 -46 -46 -180 53 -180 33 0 45 6 69 33 76 85 -21 202
-122 147z"/>
</g>
</svg>
